<?xml version="1.0" encoding="utf-8"?>
<!-- Generator: Adobe Illustrator 25.0.1, SVG Export Plug-In . SVG Version: 6.00 Build 0)  -->
<svg version="1.1" id="Слой_1" xmlns="http://www.w3.org/2000/svg" xmlns:xlink="http://www.w3.org/1999/xlink" x="0px" y="0px"
	 viewBox="0 0 188.96 170.89" style="enable-background:new 0 0 188.96 170.89;" xml:space="preserve">
<style type="text/css">
	.st0{fill-rule:evenodd;clip-rule:evenodd;fill:#5FB458;stroke:#5FB458;stroke-width:0.2835;stroke-miterlimit:10;}
	.st1{fill-rule:evenodd;clip-rule:evenodd;fill:#5FB458;}
</style>
<g>
	<path class="st0" d="M46.22,85.4c0-24.06,21.6-43.69,48.21-43.69c26.71,0,48.31,19.63,48.31,43.69c0,24.15-21.6,43.69-48.31,43.69
		C67.82,129.09,46.22,109.55,46.22,85.4L46.22,85.4z M144.3,0H44.66C20.14,0,0,18.12,0,40.39v90.12c0,22.17,20.14,40.38,44.66,40.38
		h99.65c24.62,0,44.66-18.21,44.66-40.38V40.39C188.96,18.12,168.93,0,144.3,0L144.3,0z M44.66,10.1h99.65
		c18.47,0,33.49,13.58,33.49,30.29v90.12c0,16.7-15.02,30.29-33.49,30.29H44.66c-18.47,0-33.5-13.59-33.5-30.29V40.39
		C11.16,23.68,26.19,10.1,44.66,10.1L44.66,10.1z M155.36,85.4c0-30.39-27.23-55.11-60.93-55.11c-33.6,0-60.93,24.72-60.93,55.11
		c0,30.48,27.34,55.11,60.93,55.11C128.13,140.5,155.36,115.88,155.36,85.4L155.36,85.4z"/>
	<ellipse class="st1" cx="152.51" cy="33.1" rx="8.1" ry="7.32"/>
</g>
</svg>
