<?xml version="1.0" encoding="utf-8"?>
<!-- Generator: Adobe Illustrator 25.0.1, SVG Export Plug-In . SVG Version: 6.00 Build 0)  -->
<svg version="1.1" id="Слой_1" xmlns="http://www.w3.org/2000/svg" xmlns:xlink="http://www.w3.org/1999/xlink" x="0px" y="0px"
	 viewBox="0 0 283.46 286.19" style="enable-background:new 0 0 283.46 286.19;" xml:space="preserve">
<style type="text/css">
	.st0{fill:#5FB458;}
</style>
<g>
	<path class="st0" d="M73.61,241.24l4.24,2.67c19.27,12.08,41.34,18.48,63.88,18.48c66.51,0,120.62-54.16,120.62-120.67
		S208.24,21.11,141.73,21.11S21.11,75.22,21.11,141.73c0,27.06,8.85,52.73,25.63,74.16l2.95,3.78l-6.22,31.94L73.61,241.24z
		 M141.73,283.46c-24.8,0-49.13-6.55-70.7-19.04l-55.22,19.04l11.38-58.49C9.4,200.59,0,171.92,0,141.73C0,63.61,63.56,0,141.73,0
		s141.73,63.61,141.73,141.73C283.46,219.9,219.9,283.46,141.73,283.46"/>
	<path class="st0" d="M70.19,87.29c0,0,8.3-14.52,15.07-15.35c6.78-0.83,15.53-0.83,17.88,3.6c2.35,4.42,12.86,30.19,12.86,30.19
		s1.8,4.42-0.97,8.71c-2.77,4.29-8.99,10.51-8.99,10.51s-3.46,4.42,0,9.13c3.46,4.7,8.8,13.37,19.96,24.47
		c11.06,11.11,32.36,18.99,32.36,18.99s3.04,0.41,5.02-1.52c1.94-1.94,12.44-15.07,12.44-15.07s3.36-4.38,8.99-1.8
		c5.62,2.58,29.91,14.66,29.91,14.66s2.81,1.06,2.81,5.35c0,4.29-1.71,14.8-5.25,18.34c-3.55,3.55-13.97,14.47-29.54,14.47
		c-15.63,0-52.73-12.68-72.55-32.45c-19.77-19.82-37.38-39.92-41.53-58.17C64.52,103.05,65.07,94.8,70.19,87.29"/>
</g>
</svg>
